<?xml version="1.0" standalone="no"?>
<!DOCTYPE svg PUBLIC "-//W3C//DTD SVG 20010904//EN"
 "http://www.w3.org/TR/2001/REC-SVG-20010904/DTD/svg10.dtd">
<svg version="1.0" xmlns="http://www.w3.org/2000/svg"
 width="124.000000pt" height="156.000000pt" viewBox="0 0 124.000000 156.000000"
 preserveAspectRatio="xMidYMid meet">
<metadata>
Created by potrace 1.10, written by Peter Selinger 2001-2011
</metadata>
<g transform="translate(0.000000,156.000000) scale(0.100000,-0.100000)"
fill="#000000" stroke="none">
<path d="M70 800 l0 -720 530 0 530 0 0 720 0 720 -530 0 -530 0 0 -720z
m1010 0 l0 -670 -480 0 -480 0 0 670 0 670 480 0 480 0 0 -670z"/>
<path d="M180 800 l0 -600 375 0 375 0 0 70 0 70 -295 0 -295 0 0 530 0 530
-80 0 -80 0 0 -600z m130 58 c0 -462 2 -513 17 -530 15 -17 37 -18 292 -18
l277 0 -4 -40 -4 -40 -292 -1 c-160 0 -312 -2 -338 -3 l-48 -2 0 573 0 573 50
0 50 0 0 -512z"/>
<path d="M592 1192 c-29 -11 -70 -33 -90 -49 -80 -65 -124 -213 -102 -341 27
-153 120 -245 263 -259 96 -9 170 16 227 76 25 26 53 66 62 89 l16 42 -56 16
c-31 9 -61 17 -66 18 -4 0 -14 -14 -20 -32 -26 -74 -93 -112 -171 -98 -86 16
-130 104 -123 245 6 130 52 191 150 198 65 5 110 -19 135 -72 18 -38 15 -37
116 -18 33 6 31 22 -11 92 -58 94 -207 136 -330 93z m236 -44 c24 -12 52 -33
63 -46 23 -30 25 -71 4 -73 -8 -1 -21 -2 -27 -3 -7 -1 -23 13 -36 31 -48 69
-145 92 -221 51 -79 -42 -120 -147 -107 -275 11 -110 54 -178 129 -202 48 -16
117 -7 145 20 12 11 25 19 29 18 3 0 16 17 28 38 17 32 25 39 45 36 48 -7 50
-10 37 -42 -19 -44 -50 -77 -99 -103 -55 -29 -195 -33 -243 -6 -42 22 -107 83
-98 91 3 4 1 7 -5 7 -7 0 -19 16 -27 36 -28 67 -15 324 17 324 4 0 8 10 8 22
0 12 3 19 6 15 3 -3 18 7 34 22 69 72 216 89 318 39z"/>
</g>
</svg>
