<?xml version="1.0" encoding="UTF-8" standalone="no"?>
<!-- Created with Inkscape (http://www.inkscape.org/) -->

<svg
   xmlns:dc="http://purl.org/dc/elements/1.1/"
   xmlns:cc="http://creativecommons.org/ns#"
   xmlns:rdf="http://www.w3.org/1999/02/22-rdf-syntax-ns#"
   xmlns:svg="http://www.w3.org/2000/svg"
   xmlns="http://www.w3.org/2000/svg"
   xmlns:sodipodi="http://sodipodi.sourceforge.net/DTD/sodipodi-0.dtd"
   xmlns:inkscape="http://www.inkscape.org/namespaces/inkscape"
   width="264.58334mm"
   height="260.64008mm"
   viewBox="0 0 264.58335 260.64008"
   version="1.1"
   id="svg4557"
   inkscape:version="0.92.4 (5da689c313, 2019-01-14)"
   sodipodi:docname="PepsiCo 1965.svg">
  <defs
     id="defs4551" />
  <sodipodi:namedview
     id="base"
     pagecolor="#ffffff"
     bordercolor="#666666"
     borderopacity="1.0"
     inkscape:pageopacity="0.0"
     inkscape:pageshadow="2"
     inkscape:zoom="0.49497475"
     inkscape:cx="637.75847"
     inkscape:cy="358.33169"
     inkscape:document-units="mm"
     inkscape:current-layer="layer1"
     showgrid="false"
     fit-margin-top="0"
     fit-margin-left="0"
     fit-margin-right="0"
     fit-margin-bottom="0"
     inkscape:object-paths="true"
     inkscape:window-width="1920"
     inkscape:window-height="1017"
     inkscape:window-x="-8"
     inkscape:window-y="-8"
     inkscape:window-maximized="1" />
  <metadata
     id="metadata4554">
    <rdf:RDF>
      <cc:Work
         rdf:about="">
        <dc:format>image/svg+xml</dc:format>
        <dc:type
           rdf:resource="http://purl.org/dc/dcmitype/StillImage" />
        <dc:title></dc:title>
      </cc:Work>
    </rdf:RDF>
  </metadata>
  <g
     inkscape:label="Layer 1"
     inkscape:groupmode="layer"
     id="layer1"
     transform="translate(142.52424,27.704019)">
    <path
       inkscape:connector-curvature="0"
       id="path5154"
       d="m 150.45266,179.42021 c 0,-0.23859 0.19074,-0.34805 0.43989,-0.25244 0.35339,0.13561 0.28705,0.39355 -0.10122,0.39355 -0.18627,0 -0.33867,-0.0635 -0.33867,-0.14111 z"
       style="fill:#564caa;stroke-width:0.16933332" />
    <g
       id="g5346"
       transform="matrix(2.0926943,0,0,2.0926943,155.73542,-254.52789)">
      <path
         inkscape:connector-curvature="0"
         id="path5113"
         d="m -16.09233,170.66225 a 63.215955,62.273801 0 0 1 -63.215951,62.2738 63.215955,62.273801 0 0 1 -63.215959,-62.2738 63.215955,62.273801 0 0 1 63.215959,-62.27381 63.215955,62.273801 0 0 1 63.215951,62.27381 z"
         style="opacity:1;fill:#ffffff;fill-opacity:1;stroke:none;stroke-width:1.0339967;stroke-miterlimit:4;stroke-dasharray:none;stroke-opacity:1" />
      <g
         style="fill:#5449ae;fill-opacity:1"
         inkscape:label="Layer 1"
         id="layer1-3"
         transform="matrix(0.2097143,0,0,0.20877437,-248.59986,140.28817)">
        <path
           inkscape:connector-curvature="0"
           style="fill:#5449ae;fill-opacity:1;fill-rule:nonzero;stroke:none"
           d="m 543.44523,108.23167 v 0.50089 l 0.0969,0.57629 v 3.587 l 0.10233,1.52959 v 3.88861 l 0.19928,2.13281 v 4.84192 l 0.10233,2.60677 v 27.76425 l -0.10233,3.29078 v 3.38233 l -0.19928,3.38773 v 3.31232 l -0.10233,3.38234 -0.0969,3.29077 -0.17773,3.28001 -0.30161,3.11304 -0.30161,3.18306 -0.0754,2.98917 h 15.67831 v -0.28007 l -0.19927,-0.47396 v -1.35724 l -0.10233,-0.8779 v -2.33209 l -0.19928,-1.35186 v -1.45419 l -0.0754,-1.73425 v -3.95863 l -0.19927,-2.13281 v -22.64766 l 0.19927,-3.59239 v -3.65701 l 0.0754,-3.88862 0.19928,-3.6624 0.10233,-4.08789 0.19927,-4.23869 0.17235,-4.36796 0.20467,-4.5403 0.30161,-4.56185 0.27468,-4.84191 h -15.77527"
           id="path4038" />
        <path
           inkscape:connector-curvature="0"
           style="fill:#5449ae;fill-opacity:1;fill-rule:nonzero;stroke:none"
           d="m 555.93511,108.23167 h 51.09053 l 1.55652,0.10233 2.13281,0.0969 2.42904,0.30161 2.7091,0.57629 2.98916,0.8779 3.00533,1.15258 2.98917,1.45957 2.80605,1.8312 2.63369,2.42904 2.4075,2.7845 1.8312,3.31233 1.45419,3.96401 0.67862,4.5403 0.19928,5.24047 v 0.27468 l -0.19928,0.98023 v 1.25491 l -0.27468,1.72887 -0.40394,2.13282 -0.77557,2.22975 -0.77557,2.4075 -1.15796,2.63908 -1.55114,2.50444 -1.93353,2.60677 -2.40749,2.13281 -2.70911,2.13281 -3.20999,1.72887 -3.86168,1.35725 -4.44335,0.87789 -5.13814,0.30161 H 557.3893 v -11.91358 h 49.93795 l 1.25491,-0.19928 1.45419,-0.28006 1.45419,-0.39856 1.55652,-0.57629 1.45419,-0.78095 1.52959,-1.05025 1.25491,-1.35724 1.27646,-1.55653 1.15796,-1.92814 0.67324,-2.43443 0.57629,-2.7091 0.20466,-3.18306 v -0.57629 l -0.20466,-0.8779 -0.0969,-0.85635 -0.27468,-1.27646 -0.30161,-1.25491 -0.57629,-1.45419 -0.67862,-1.52959 -0.8779,-1.45419 -1.15258,-1.35724 -1.45419,-1.45419 -1.55652,-1.17951 -1.93353,-0.95331 -2.40749,-0.8779 -2.6337,-0.37701 -2.98378,-0.19928 h -46.35096 l -1.75579,-11.91358"
           id="path4040" />
        <path
           inkscape:connector-curvature="0"
           style="fill:#5449ae;fill-opacity:1;fill-rule:nonzero;stroke:none"
           d="m 645.65322,109.30885 v 1.8312 l 0.10234,0.78095 v 0.8779 l 0.19927,0.95331 v 3.68394 l 0.0754,1.45419 v 3.08612 l 0.19927,1.85813 v 25.73377 l -0.19927,2.7091 v 2.90838 l -0.0754,2.98378 v 3.01071 l -0.19927,3.18845 -0.10234,3.10766 h 16.15228 v -0.30161 l -0.0754,-0.10234 v -0.47395 l -0.19928,-0.37702 v -0.57629 l -0.10233,-0.78095 v -0.77557 l -0.0969,-0.8779 -0.20466,-1.15258 -0.0754,-1.17951 -0.19928,-1.25491 -0.10233,-1.25491 v -1.55114 l -0.19928,-1.73425 -0.097,-1.72887 v -1.65347 l -0.17773,-2.03048 v -2.13281 l -0.10233,-2.13281 v -12.66761 l 0.10233,-3.01071 v -3.01071 l 0.17773,-3.28539 0.097,-3.2854 0.19928,-3.38772 0.10233,-3.58161 0.27468,-3.86707 h -15.47366"
           id="path4042" />
        <path
           inkscape:connector-curvature="0"
           style="fill:#5449ae;fill-opacity:1;fill-rule:nonzero;stroke:none"
           d="m 645.65322,109.30885 h 0.98024 l 0.85097,0.20466 h 4.84191 l 1.7558,0.07 h 1.8312 l 1.92815,0.20466 h 11.81664 l 2.60677,0.097 h 11.51502 l 3.00533,-0.097 h 9.38222 l 3.11304,-0.20466 3.18306,-0.07 h 3.11304 l 3.08073,-0.20466 h 3.18845 l 3.10765,-0.097 2.98378,-0.20466 v 12.39293 h -1.72887 l -0.98023,-0.10234 h -3.95862 l -1.73426,-0.17234 h -1.85275 l -2.03586,-0.10234 h -6.66773 l -2.40749,-0.19927 h -19.16299 l -2.91377,0.19927 h -2.80604 l -3.01072,0.10234 h -2.80604 l -2.98917,0.17234 -2.90838,0.10234 -2.80605,0.19927 -2.91376,0.27468 -2.60677,0.10234 -2.7091,0.30161 -3.2854,-12.96922"
           id="path4044" />
        <path
           inkscape:connector-curvature="0"
           style="fill:#5449ae;fill-opacity:1;fill-rule:nonzero;stroke:none"
           d="m 649.61724,132.83979 h 4.16329 l 1.25491,0.0754 h 9.98005 l 2.13281,0.19928 h 6.77006 l 2.61216,-0.19928 h 10.55634 l 2.7091,-0.0754 h 2.7845 l 3.01072,-0.10233 h 2.81143 l 3.00532,-0.19928 h 2.98917 l 3.20999,-0.10233 2.88145,-0.19928 3.01071,-0.10233 v 12.69454 h -0.30161 l -0.47395,-0.10233 h -2.61216 l -1.15258,-0.19928 h -1.35186 l -1.45419,-0.0754 h -3.587 l -1.8312,-0.19928 -1.85813,-0.10233 h -4.43797 l -2.23515,-0.19928 h -20.71412 l -2.81144,0.19928 h -2.7091 l -2.80604,0.30161 h -2.70911 l -2.7091,0.0754 -2.7091,0.30161 -2.7091,0.19928 -2.7091,0.10233 v -12.2906"
           id="path4046" />
        <path
           inkscape:connector-curvature="0"
           style="fill:#5449ae;fill-opacity:1;fill-rule:nonzero;stroke:none"
           d="m 645.65322,155.46052 h 3.78628 l 1.43265,0.19928 h 6.96934 l 2.13281,0.10233 h 32.90777 l 3.2854,-0.10233 h 3.11304 l 3.18306,-0.19928 h 3.11304 l 3.08073,-0.0754 3.18845,-0.19928 3.10765,-0.10233 2.98378,-0.19928 v 12.69454 h -1.52959 l -0.8779,-0.10233 h -6.87239 l -1.8312,-0.19928 h -8.62819 l -2.60677,-0.10233 h -36.2955 l -3.38234,0.10233 h -6.87239 l -3.38773,0.19928 v -12.01592"
           id="path4048" />
        <path
           inkscape:connector-curvature="0"
           style="fill:#5449ae;fill-opacity:1;fill-rule:nonzero;stroke:none"
           d="m 728.29967,109.30885 v 1.15258 l 0.19928,0.8779 v 3.38772 l 0.10233,1.45419 v 3.587 l 0.19928,1.8312 v 6.29611 l 0.0754,2.20821 v 19.16299 l -0.0754,2.22976 v 4.56723 l -0.19928,2.30516 -0.10233,1.93353 -0.19928,2.03048 v 1.85813 l -0.27468,1.72887 -0.10233,1.55653 h 15.19898 v -0.19928 l -0.10234,-0.20467 v -1.05024 l -0.19927,-0.57629 v -0.67863 l -0.0969,-0.67862 v -1.8312 l -0.20466,-1.17951 v -1.15258 l -0.0754,-1.45419 v -1.35724 l -0.0969,-1.65347 v -1.8312 l -0.19928,-1.8312 v -4.16329 l -0.10233,-2.22976 v -7.8257 l -0.19928,-2.7091 v -9.8831 l 0.19928,-3.68934 v -7.72336 l 0.10233,-4.26562 h -13.84712"
           id="path4050" />
        <path
           inkscape:connector-curvature="0"
           style="fill:#5449ae;fill-opacity:1;fill-rule:nonzero;stroke:none"
           d="m 780.46738,120.72154 h -39.87711 l -1.45419,-11.41269 h 43.84113 l 1.45419,-0.097 h 1.75579 l 1.93354,0.097 2.40749,0.20466 2.33209,0.57629 2.50982,0.67324 2.60677,0.9533 2.43442,1.35724 2.22976,1.65347 2.13281,2.33209 1.70733,2.7091 1.24953,3.08612 0.8779,3.68933 0.30161,4.43797 v 1.15258 l -0.19928,0.98023 -0.10233,1.25491 -0.29623,1.45419 -0.37701,1.7558 -0.47934,1.72887 -0.8779,1.8312 -0.74864,1.85814 -1.35725,1.72887 -1.35185,1.65346 -1.83121,1.45419 -2.23514,1.25492 -2.43442,0.9533 -2.77912,0.58167 -3.11304,0.19928 h -49.16239 v -10.93874 h 45.57539 l 1.25491,-0.27468 1.55652,-0.77557 1.55114,-1.08256 1.35724,-1.62654 0.8779,-2.33747 0.37701,-3.28539 v -2.12743 l -0.27468,-0.78095 -0.30161,-0.8779 -0.37701,-1.05025 -0.78095,-0.78095 -0.8779,-0.8779 -0.97485,-0.85097 -1.43265,-0.67863 -1.55113,-0.77556 -1.93354,-0.57629 -2.43442,-0.30161 -2.7091,-0.10234"
           id="path4052" />
        <path
           inkscape:connector-curvature="0"
           style="fill:#5449ae;fill-opacity:1;fill-rule:nonzero;stroke:none"
           d="m 894.26581,109.30885 v 26.51472 l -0.0969,2.33209 v 7.24941 l -0.20466,2.50444 v 9.8831 l -0.27468,2.50982 v 2.43442 l -0.0969,2.4075 v 2.33209 h 15.19897 v -4.26563 l -0.10233,-1.15258 v -32.22915 l 0.10233,-3.11304 v -6.57079 l 0.17235,-3.38772 v -3.58161 l 0.10233,-3.86707 h -14.80041"
           id="path4054" />
        <path
           inkscape:connector-curvature="0"
           style="fill:#5449ae;fill-opacity:1;fill-rule:nonzero;stroke:none"
           d="m 882.83157,107.75771 h -0.0754 l -0.20466,0.19928 h -0.97485 l -0.27468,0.0969 h -1.25491 l -0.60322,0.17773 -0.85097,0.10233 h -0.98023 l -0.9533,0.0969 h -2.43442 l -1.45419,0.20466 h -1.55652 l -1.42726,0.097 h -2.13282 l -1.85813,0.17773 h -4.5403 l -2.40749,0.0969 h -5.61748 l -3.00533,0.20466 h -18.38742 l -0.57629,0.097 -0.78095,0.20466 -1.05025,0.37163 -1.17951,0.30161 -1.45419,0.57629 -1.52959,0.67862 -1.45419,0.85636 -1.65886,1.17412 -1.55113,1.25491 -1.43265,1.45419 -1.27645,1.73426 -1.05564,1.92814 -0.77557,2.13282 -0.37701,2.7091 -0.40394,2.90838 v 1.55652 l 0.30161,0.9533 0.10233,1.27646 0.17235,1.45957 0.40394,1.52959 0.57629,1.35186 0.8779,1.55652 1.15258,1.55652 1.25491,1.45419 1.7558,1.15258 1.93354,1.15258 2.40749,0.78096 2.7091,0.47396 3.20999,0.30161 h 31.8306 l 1.05024,0.30161 1.45419,0.37701 1.55653,0.67323 1.15258,1.35725 0.8779,1.92815 0.30161,2.61215 v 0.0969 l -0.19928,0.50627 -0.30161,0.67324 -0.37701,0.85635 -0.8779,0.8779 -1.25492,0.47396 -1.72887,0.57629 -2.43442,0.19928 h -3.6624 l -1.55114,0.10233 h -36.69944 l -2.40749,-0.10233 h -6.67311 l -1.85275,-0.19928 h -1.63192 l -1.35186,-0.0754 -1.23337,-0.19928 h -1.07718 l -0.57629,-0.10233 -0.37701,-0.19928 v 12.96922 h 0.37701 l 0.30161,-0.10233 h 5.56901 l 1.35186,-0.17235 h 11.43963 l 2.60676,-0.10233 h 42.48927 l 1.25492,-0.19928 1.45419,-0.20467 1.55652,-0.27468 1.72887,-0.47395 1.65885,-0.67863 1.72887,-0.8779 1.8312,-1.25491 1.55652,-1.45419 1.45419,-1.7558 1.24953,-2.13281 0.88328,-2.50982 0.57629,-2.90838 0.30161,-3.18306 v -2.7091 l -0.20466,-1.35725 -0.39855,-1.35185 -0.57629,-1.55653 -0.58168,-1.63192 -1.15258,-1.35186 -1.24953,-1.65347 -1.65885,-1.35724 -2.22976,-1.25491 -2.40749,-0.97485 -2.91376,-0.85635 -3.48467,-0.59784 -4.06096,-0.0754 h -28.07125 l -0.8779,-0.10233 -1.15258,-0.19928 -1.05025,-0.40394 -1.35724,-0.75402 -1.07718,-0.97485 -0.78095,-1.55652 -0.27468,-2.03048 v -0.85636 l 0.27468,-0.77556 0.30161,-1.17951 0.67862,-1.15258 1.15258,-0.8779 1.25491,-0.67863 2.03048,-0.17234 h 1.7558 l 1.93353,-0.10234 h 20.81646 l 4.16329,0.10234 h 3.96401 l 3.66241,0.17234 3.587,0.10234 3.11304,0.30161 2.60677,0.27468 1.92815,0.30161 -0.29622,-14.52036"
           id="path4056" />
        <path
           inkscape:connector-curvature="0"
           style="fill:#5449ae;fill-opacity:1;fill-rule:nonzero;stroke:none"
           d="m 980.69853,107.65538 h -0.19928 l -0.3016,0.10233 h -0.37702 l -0.57629,0.19928 -0.97484,0.0969 -1.25491,0.28006 -1.65886,0.0969 -1.92815,0.20466 -2.31054,0.097 -2.80605,0.17773 -3.38772,0.0969 h -4.08789 l -4.34103,0.20466 H 945.561 l -0.30161,0.097 -1.05563,0.20466 -1.35186,0.27468 -2.03048,0.57629 -2.13281,0.77557 -2.61216,1.08256 -2.53136,1.5296 -2.80605,1.85274 -2.71449,2.31055 -2.70372,2.80604 -2.61215,3.2854 -2.13281,3.99094 -1.92815,4.5403 -1.45419,5.04119 -0.9533,5.9945 -0.30161,6.77006 v 0.28006 l 0.10233,1.17413 0.19928,1.73425 0.37701,2.22976 0.57629,2.7091 0.97485,3.18306 0.9533,3.20999 1.45419,3.29078 1.85813,3.587 2.30516,3.38234 2.7091,3.18844 3.29078,3.01071 3.78628,2.50444 4.5403,2.33209 5.04119,1.52959 5.99449,0.98023 h 58.9432 v -11.23496 h -52.85176 l -1.72887,-0.17773 -2.13281,-0.39856 -2.13281,-0.37701 -2.40749,-0.8779 -2.42904,-1.15258 -2.50982,-1.55652 -2.33209,-1.8312 -2.23514,-2.33209 -2.03048,-2.7091 -1.72887,-3.38773 -1.25492,-3.86168 -0.87789,-4.66418 -0.30161,-5.11659 v -2.33209 l 0.19927,-1.63192 0.30161,-1.93354 0.37702,-2.13281 0.57629,-2.42904 0.67862,-2.23514 1.17951,-2.30516 1.24952,-2.43442 1.73426,-2.40749 2.13281,-2.13281 2.42904,-2.03048 2.98916,-1.72887 3.28539,-1.28184 3.98556,-0.85097 h 0.9533 l 1.35725,-0.10234 h 22.74999 l 1.15258,0.10234 h 0.67862 l 0.59783,-13.47011"
           id="path4058" />
        <path
           inkscape:connector-curvature="0"
           style="fill:#5449ae;fill-opacity:1;fill-rule:nonzero;stroke:none"
           d="m 1069.6411,135.14495 -0.3986,-3.28539 -0.6786,-3.18306 -1.0556,-2.81143 -1.3519,-2.7091 -1.7558,-2.53137 -2.1328,-2.20822 -2.4075,-2.13281 -2.9084,-1.85813 -3.3877,-1.52959 -3.6893,-1.45419 -4.2387,-1.07718 -4.7396,-1.05563 -5.4451,-0.57629 -5.6929,-0.39856 -6.3931,-0.10233 -5.9945,0.10233 -5.5205,0.39856 -5.1381,0.57629 -4.6427,1.05563 -4.34099,1.07718 -3.78628,1.45419 -3.28539,1.52959 -3.01071,1.85813 -2.50444,2.13281 -2.33209,2.20822 -1.83659,2.53137 -1.45419,2.7091 -1.15258,2.81143 -0.77556,3.18306 -0.47935,3.28539 -0.0969,3.28539 0.27468,4.66418 0.67862,4.14175 0.97484,3.587 1.45419,3.28539 2.03048,2.80605 2.13281,2.43442 2.50983,2.13281 3.01071,1.72887 3.28539,1.55652 3.587,1.15258 3.76472,0.98024 4.0609,0.57629 4.3626,0.57629 4.5403,0.37701 4.8419,0.19928 h 9.9801 l 4.7449,-0.27468 4.6373,-0.30161 4.2656,-0.57629 4.1633,-0.67863 3.8617,-1.07717 3.3877,-1.25492 3.2854,-1.52959 3.0107,-1.7558 2.4075,-2.13281 2.2298,-2.50982 1.8312,-2.90838 1.4595,-3.08073 1.1742,-3.59239 0.6786,-3.95862 0.1777,-4.56724 z m -15.199,5.52054 -0.3016,2.03048 -0.377,2.03048 -0.5763,1.8312 -1.0772,1.65347 -1.0556,1.65885 -1.3519,1.25491 -1.6588,1.24953 -1.8312,1.15796 -2.3321,0.97485 -2.5098,0.9533 -2.9084,0.60322 -3.0861,0.57629 -3.684,0.47396 -3.8617,0.30161 h -8.7305 l -3.964,-0.30161 -3.3823,-0.47396 -3.1885,-0.57629 -2.8114,-0.60322 -2.6068,-0.9533 -2.2297,-0.97485 -1.83125,-1.15796 -1.65885,-1.24953 -1.35186,-1.25491 -1.15258,-1.65885 -0.8779,-1.65347 -0.57629,-1.8312 -0.57629,-2.03048 -0.30161,-2.03048 v -4.36796 l 0.30161,-1.92815 0.57629,-1.93353 0.57629,-1.93353 0.97485,-1.65347 1.15796,-1.52959 1.24953,-1.45419 1.73426,-1.45419 1.85274,-1.15258 2.3105,-0.98023 2.5314,-0.98024 2.9084,-0.67323 3.0861,-0.57629 3.587,-0.28007 3.6624,-0.29622 4.2656,-0.20467 4.2603,0.20467 3.867,0.29622 3.587,0.28007 3.1077,0.57629 2.8868,0.67323 2.5314,0.98024 2.1059,0.98023 2.0574,1.15258 1.6319,1.45419 1.4542,1.45419 1.1526,1.52959 0.9802,1.65347 0.7756,1.93353 0.377,1.93353 0.3016,1.92815 0.097,2.13281 -0.097,2.23515"
           id="path4060" />
        <path
           inkscape:connector-curvature="0"
           style="fill:#5449ae;fill-opacity:1;fill-rule:nonzero;stroke:none"
           d="M 566.29217,187.792 H 922.03006 V 176.75632 H 566.29217 Z"
           id="path4062" />
        <path
           inkscape:connector-curvature="0"
           style="fill:#5449ae;fill-opacity:1;fill-rule:nonzero;stroke:none"
           d="m 1014.8612,177.8335 h 5.4182 v 11.03568 h -5.4182 z"
           id="path4064" />
        <path
           inkscape:connector-curvature="0"
           style="fill:#5449ae;fill-opacity:1;fill-rule:nonzero;stroke:none"
           d="m 1031.6921,188.86918 h -5.7198 V 177.8335 h 9.4792 l 5.9191,8.1273 h 0.1023 l -0.1023,-8.1273 h 5.2189 v 11.03568 h -9.2799 l -5.9191,-8.72514 h -0.1777 l 0.4793,8.72514"
           id="path4066" />
        <path
           inkscape:connector-curvature="0"
           style="fill:#5449ae;fill-opacity:1;fill-rule:nonzero;stroke:none"
           d="m 1069.6411,184.50661 v 1.65347 l -0.3016,0.37701 -0.097,0.30161 -0.4793,0.37701 -0.3986,0.47396 -0.5763,0.30161 -0.6786,0.28007 -0.8563,0.0969 -0.6733,0.20467 -0.8779,0.0969 h -0.8779 l -0.8779,0.19928 h -3.867 l -1.8312,-0.19928 -1.5512,-0.0969 -1.4542,-0.30161 -1.0556,-0.58168 -0.8779,-0.77556 -0.5763,-1.05564 -0.1993,-1.35186 v -2.90838 l 0.1993,-1.15258 0.377,-0.8779 0.8779,-0.8779 0.9533,-0.37701 1.4542,-0.47934 1.7558,-0.0969 1.8312,-0.30161 h 4.2656 l 1.7289,0.30161 1.3519,0.0969 1.1795,0.27468 1.0556,0.50627 0.474,0.67324 0.5009,0.85635 0.1023,0.97485 v 0.47934 h -5.7198 v -0.47934 l -0.097,-0.29622 -0.1023,-0.28007 -0.2747,-0.30161 h -0.5009 l -0.5817,-0.097 h -2.806 l -0.781,0.097 -0.6732,0.20466 -0.2747,0.30161 -0.3016,0.27468 -0.1023,0.30161 -0.1777,0.37702 v 2.70371 l 0.1777,0.58168 v 0.39855 l 0.3016,0.27468 0.377,0.50089 0.5978,0.0754 0.8564,0.20467 h 2.5314 l 0.754,-0.20467 0.4039,-0.0754 0.2747,-0.30161 0.3016,-0.29622 0.2962,-0.28007 v -0.77557 h 5.5206"
           id="path4068" />
        <path
           inkscape:connector-curvature="0"
           style="fill:#5449ae;fill-opacity:1;fill-rule:nonzero;stroke:none"
           d="m 1072.5279,186.44015 h 4.061 v 2.23514 h -4.061 z"
           id="path4070" />
      </g>
      <path
         sodipodi:nodetypes="csscsc"
         inkscape:connector-curvature="0"
         id="path5302"
         d="m -23.918036,150.41658 c 0,0 -16.161185,-8.8533 -28.397387,-8.8533 -26.89484,0 -39.387512,6.78196 -52.117557,6.78196 -14.60269,0 -25.12333,-6.68174 -25.12333,-6.68174 0,0 14.58284,-29.13237 50.246667,-29.13237 42.3746,0 55.391607,37.88545 55.391607,37.88545 z"
         style="fill:#da3138;fill-opacity:1;stroke:none;stroke-width:0.26458332px;stroke-linecap:butt;stroke-linejoin:miter;stroke-opacity:1" />
      <path
         style="fill:#373a87;fill-opacity:1;stroke:none;stroke-width:0.26458332px;stroke-linecap:butt;stroke-linejoin:miter;stroke-opacity:1"
         d="m -133.57231,190.83443 c 0,0 16.16119,8.8533 28.39739,8.8533 26.89484,0 39.387512,-6.78196 52.117557,-6.78196 14.60269,0 25.12333,6.68174 25.12333,6.68174 0,0 -14.58284,29.13237 -50.246667,29.13237 -42.3746,0 -55.39161,-37.88545 -55.39161,-37.88545 z"
         id="path5304"
         inkscape:connector-curvature="0"
         sodipodi:nodetypes="csscsc" />
    </g>
  </g>
</svg>
