<svg width="0" height="0" class="hidden">

  <symbol xmlns="http://www.w3.org/2000/svg" viewBox="0 0 16 11" id="tick">

    <defs></defs>

    <path id="Shape_10_copy_5" d="M2,4L6,8l8-8"></path>

  </symbol>

  <symbol id="chevron" xmlns="http://www.w3.org/2000/svg" viewBox="0 0 51 51">

    <defs></defs>

    <circle cx="25.5" cy="25.5" r="25.5"></circle>

    <rect x="24.4" y="27.9" width="1.6" height="15.24" rx="0.8" transform="matrix(0.78, -0.63, 0.63, 0.78, -21.26, 15.39)"></rect>

    <rect x="33.3" y="27.9" width="1.6" height="15.24" rx="0.8" transform="translate(24 -21.9) rotate(37.3)"></rect>

  </symbol>

  <symbol id="menu" enable-background="new 0 0 24 24" xmlns="http://www.w3.org/2000/svg" viewBox="0 0 24 24">

    <g>

      <path d="m21.5 24h-19c-1.379 0-2.5-1.122-2.5-2.5v-19c0-1.378 1.121-2.5 2.5-2.5h19c1.379 0 2.5 1.122 2.5 2.5v19c0 1.378-1.121 2.5-2.5 2.5zm-19-23c-.827 0-1.5.673-1.5 1.5v19c0 .827.673 1.5 1.5 1.5h19c.827 0 1.5-.673 1.5-1.5v-19c0-.827-.673-1.5-1.5-1.5z"></path>

    </g>

    <g>

      <path d="m16.5 8h-9c-.276 0-.5-.224-.5-.5s.224-.5.5-.5h9c.276 0 .5.224.5.5s-.224.5-.5.5z"></path>

    </g>

    <g>

      <path d="m16.5 12.5h-9c-.276 0-.5-.224-.5-.5s.224-.5.5-.5h9c.276 0 .5.224.5.5s-.224.5-.5.5z"></path>

    </g>

    <g>

      <path d="m16.5 17h-9c-.276 0-.5-.224-.5-.5s.224-.5.5-.5h9c.276 0 .5.224.5.5s-.224.5-.5.5z"></path>

    </g>

  </symbol>

  <symbol version="1.1" id="linkedin" xmlns="http://www.w3.org/2000/svg" xmlns:xlink="http://www.w3.org/1999/xlink" x="0px" y="0px" xml:space="preserve" viewBox="0 0 260.366 260.366">

    <g>

      <path d="M34.703,0.183C15.582,0.183,0.014,15.748,0,34.884C0,54.02,15.568,69.588,34.703,69.588

		c19.128,0,34.688-15.568,34.688-34.704C69.391,15.75,53.83,0.183,34.703,0.183z"></path>

      <path d="M60.748,83.531H8.654c-2.478,0-4.488,2.009-4.488,4.489v167.675c0,2.479,2.01,4.488,4.488,4.488h52.093

		c2.479,0,4.489-2.01,4.489-4.488V88.02C65.237,85.539,63.227,83.531,60.748,83.531z"></path>

      <path d="M193.924,81.557c-19.064,0-35.817,5.805-46.04,15.271V88.02c0-2.48-2.01-4.489-4.489-4.489H93.424

		c-2.479,0-4.489,2.009-4.489,4.489v167.675c0,2.479,2.01,4.488,4.489,4.488h52.044c2.479,0,4.489-2.01,4.489-4.488v-82.957

		c0-23.802,4.378-38.555,26.227-38.555c21.526,0.026,23.137,15.846,23.137,39.977v81.535c0,2.479,2.01,4.488,4.49,4.488h52.068

		c2.478,0,4.488-2.01,4.488-4.488v-91.977C260.366,125.465,252.814,81.557,193.924,81.557z"></path>

    </g>

    <g></g>

    <g></g>

    <g></g>

    <g></g>

    <g></g>

    <g></g>

    <g></g>

    <g></g>

    <g></g>

    <g></g>

    <g></g>

    <g></g>

    <g></g>

    <g></g>

    <g></g>

  </symbol>

</svg>